<svg xmlns="http://www.w3.org/2000/svg" width="60" height="60" viewBox="0 0 60 60">
  <defs>
    <linearGradient id="tovi-logo-v2-white-a" x1="-.052%" x2="100.175%" y1="50.008%" y2="50.008%">
      <stop offset="0%" stop-color="#70C5C4"/>
      <stop offset="100%" stop-color="#6EC172"/>
    </linearGradient>
    <linearGradient id="tovi-logo-v2-white-b" x1=".106%" x2="100.156%" y1="50.001%" y2="50.001%">
      <stop offset="0%" stop-color="#70C5C4"/>
      <stop offset="100%" stop-color="#6EC172"/>
    </linearGradient>
    <linearGradient id="tovi-logo-v2-white-c" x1="-.033%" x2="99.832%" y1="49.884%" y2="49.884%">
      <stop offset="0%" stop-color="#70C5C4"/>
      <stop offset="100%" stop-color="#6EC172"/>
    </linearGradient>
  </defs>
  <path fill="#008BFF" d="M8.67375684,17.15541 L0.319933654,55.2719643 C-0.106644551,57.2930281 1.20863825,58.9240621 3.27043291,58.9240621 L3.34152928,58.9240621 C5.43887212,58.9240621 7.4651186,57.2930281 7.92724499,55.2719643 L18.6983447,6.12820214 C18.6983447,6.12820214 10.7710997,7.54649254 8.67375684,17.15541" opacity=".9"/>
  <path fill="url(#tovi-logo-v2-white-a)" d="M16.0677791,0.951442202 L15.9966827,0.951442202 C13.8993399,0.951442202 11.8730934,2.58247616 11.410967,4.60353997 L8.67375684,17.15541 C10.8066479,7.51103528 18.6983447,6.09274488 18.6983447,6.09274488 L19.0182783,4.56808271 C19.4804047,2.58247616 18.1651219,0.951442202 16.0677791,0.951442202" opacity=".9"/>
  <path fill="#008BFF" d="M21.7910367,28.4662759 L18.1651219,45.0248162 C17.7385437,47.04588 19.0538265,48.676914 21.1156212,48.676914 L21.1867175,48.676914 C23.2840604,48.676914 25.3103069,47.04588 25.7724332,45.0248162 L31.8867209,17.15541 C31.8867209,17.1199527 23.9594759,18.6091576 21.7910367,28.4662759" opacity=".9"/>
  <path fill="url(#tovi-logo-v2-white-b)" d="M29.4338962,11.163133 L29.3627998,11.163133 C27.265457,11.163133 25.2392105,12.794167 24.7770841,14.8152308 L21.7910367,28.4662759 C23.9594759,18.6091576 31.8867209,17.15541 31.8867209,17.15541 L32.3843954,14.8506881 C32.8465218,12.794167 31.531239,11.163133 29.4338962,11.163133" opacity=".9"/>
  <path fill="#008BFF" d="M51.4026738,27.934417 L47.385729,24.7787208 C47.385729,24.7787208 38.5342312,26.161554 36.934563,33.3239205 L36.2946956,36.1959585 C35.8325693,38.2170223 37.9299121,39.4225691 39.9206104,38.2524796 L50.4428728,32.0829164 C52.220282,31.0546558 52.6824084,28.9272202 51.4026738,27.934417" opacity=".9"/>
  <path fill="url(#tovi-logo-v2-white-c)" d="M47.4212772,24.7787208 L47.4212772,24.7787208 L46.8525062,24.3177764 L43.6176215,21.7648537 C42.160146,20.5947642 39.5295804,21.800311 39.067454,23.8213748 L37.1123039,32.6502325 L36.9701111,33.3239205 C38.5342312,26.1260967 47.4212772,24.7787208 47.4212772,24.7787208" opacity=".9"/>
  <path fill="#2942EE" d="M16.0677791.951442202L15.9966827.951442202C13.8993399.951442202 11.8730934 2.58247616 11.410967 4.60353997L8.67375684 17.15541C10.8066479 7.51103528 18.6983447 6.09274488 18.6983447 6.09274488L19.0182783 4.56808271C19.4804047 2.58247616 18.1651219.951442202 16.0677791.951442202M29.4338962 11.163133L29.3627998 11.163133C27.265457 11.163133 25.2392105 12.794167 24.7770841 14.8152308L21.7910367 28.4662759C23.9594759 18.6091576 31.8867209 17.15541 31.8867209 17.15541L32.3843954 14.8506881C32.8465218 12.794167 31.531239 11.163133 29.4338962 11.163133M47.4212772 24.7787208L47.4212772 24.7787208 46.8525062 24.3177764 43.6176215 21.7648537C42.160146 20.5947642 39.5295804 21.800311 39.067454 23.8213748L37.1123039 32.6502325 36.9701111 33.3239205C38.5342312 26.1260967 47.4212772 24.7787208 47.4212772 24.7787208"/>
</svg>
